<mxfile host="65bd71144e">
    <diagram id="pHMDzcZ6VSeygL0ZCbYg" name="Page-1">
        <mxGraphModel dx="438" dy="347" grid="1" gridSize="10" guides="1" tooltips="1" connect="1" arrows="1" fold="1" page="1" pageScale="1" pageWidth="850" pageHeight="1100" math="0" shadow="0">
            <root>
                <mxCell id="0"/>
                <mxCell id="1" parent="0"/>
                <mxCell id="2" value="UserServiceRegistration" style="swimlane;fontStyle=1;align=center;verticalAlign=top;childLayout=stackLayout;horizontal=1;startSize=26;horizontalStack=0;resizeParent=1;resizeParentMax=0;resizeLast=0;collapsible=1;marginBottom=0;whiteSpace=wrap;html=1;" parent="1" vertex="1">
                    <mxGeometry x="10" y="130" width="160" height="130" as="geometry"/>
                </mxCell>
                <mxCell id="3" value="- username&lt;div&gt;- password&lt;/div&gt;&lt;div&gt;- email&lt;/div&gt;" style="text;strokeColor=none;fillColor=none;align=left;verticalAlign=top;spacingLeft=4;spacingRight=4;overflow=hidden;rotatable=0;points=[[0,0.5],[1,0.5]];portConstraint=eastwest;whiteSpace=wrap;html=1;" parent="2" vertex="1">
                    <mxGeometry y="26" width="160" height="54" as="geometry"/>
                </mxCell>
                <mxCell id="4" value="" style="line;strokeWidth=1;fillColor=none;align=left;verticalAlign=middle;spacingTop=-1;spacingLeft=3;spacingRight=3;rotatable=0;labelPosition=right;points=[];portConstraint=eastwest;strokeColor=inherit;" parent="2" vertex="1">
                    <mxGeometry y="80" width="160" height="8" as="geometry"/>
                </mxCell>
                <mxCell id="5" value="+ registerUser(username, password, email)" style="text;strokeColor=none;fillColor=none;align=left;verticalAlign=top;spacingLeft=4;spacingRight=4;overflow=hidden;rotatable=0;points=[[0,0.5],[1,0.5]];portConstraint=eastwest;whiteSpace=wrap;html=1;" parent="2" vertex="1">
                    <mxGeometry y="88" width="160" height="42" as="geometry"/>
                </mxCell>
                <mxCell id="6" value="SendEmail" style="swimlane;fontStyle=1;align=center;verticalAlign=top;childLayout=stackLayout;horizontal=1;startSize=26;horizontalStack=0;resizeParent=1;resizeParentMax=0;resizeLast=0;collapsible=1;marginBottom=0;whiteSpace=wrap;html=1;" parent="1" vertex="1">
                    <mxGeometry x="220" y="144" width="180" height="100" as="geometry"/>
                </mxCell>
                <mxCell id="7" value="..." style="text;strokeColor=none;fillColor=none;align=left;verticalAlign=top;spacingLeft=4;spacingRight=4;overflow=hidden;rotatable=0;points=[[0,0.5],[1,0.5]];portConstraint=eastwest;whiteSpace=wrap;html=1;" parent="6" vertex="1">
                    <mxGeometry y="26" width="180" height="26" as="geometry"/>
                </mxCell>
                <mxCell id="8" value="" style="line;strokeWidth=1;fillColor=none;align=left;verticalAlign=middle;spacingTop=-1;spacingLeft=3;spacingRight=3;rotatable=0;labelPosition=right;points=[];portConstraint=eastwest;strokeColor=inherit;" parent="6" vertex="1">
                    <mxGeometry y="52" width="180" height="8" as="geometry"/>
                </mxCell>
                <mxCell id="9" value="+ sendWelcomeEmail(email)" style="text;strokeColor=none;fillColor=none;align=left;verticalAlign=top;spacingLeft=4;spacingRight=4;overflow=hidden;rotatable=0;points=[[0,0.5],[1,0.5]];portConstraint=eastwest;whiteSpace=wrap;html=1;" parent="6" vertex="1">
                    <mxGeometry y="60" width="180" height="40" as="geometry"/>
                </mxCell>
                <mxCell id="10" value="" style="endArrow=none;startArrow=none;endFill=0;startFill=0;endSize=8;html=1;verticalAlign=bottom;labelBackgroundColor=none;strokeWidth=1;" edge="1" parent="1">
                    <mxGeometry width="160" relative="1" as="geometry">
                        <mxPoint x="170" y="190" as="sourcePoint"/>
                        <mxPoint x="220" y="190" as="targetPoint"/>
                    </mxGeometry>
                </mxCell>
            </root>
        </mxGraphModel>
    </diagram>
</mxfile>